REM DIRINDEX 1\2\6,1\2\7,1\2\8,1\2\9,1\3\10,1\3\11,1\4\12,1\4\13,1\4\14,1\5\15,1\5\16,1\5\17
REM DIRNAME cjc020,folder01,folder02,folder03,folder04,folder05,folder06,folder07,folder08,folder09,folder10,folder11,folder12,folder13,folder14,folder15,folder16
TITLE ""
FILE "1900_2_sec04_0316_0330.mp3" MP3
  TRACK 01 AUDIO
    TITLE "0:"
    INDEX 01 00:00:00
  TRACK 02 AUDIO
    TITLE "13:cjc020_2730"
    INDEX 01 00:00:17
  TRACK 03 AUDIO
    TITLE "0:"
    INDEX 01 00:01:38
  TRACK 04 AUDIO
    TITLE "14:cjc020_2731"
    INDEX 01 00:01:40
  TRACK 05 AUDIO
    TITLE "0:"
    INDEX 01 00:03:15
  TRACK 06 AUDIO
    TITLE "13:cjc020_2732"
    INDEX 01 00:03:68
  TRACK 07 AUDIO
    TITLE "0:"
    INDEX 01 00:05:12
  TRACK 08 AUDIO
    TITLE "14:cjc020_2733"
    INDEX 01 00:05:14
  TRACK 09 AUDIO
    TITLE "0:"
    INDEX 01 00:08:60
  TRACK 10 AUDIO
    TITLE "13:cjc020_2734"
    INDEX 01 00:09:45
  TRACK 11 AUDIO
    TITLE "0:"
    INDEX 01 00:10:63
  TRACK 12 AUDIO
    TITLE "14:cjc020_2735"
    INDEX 01 00:10:66
  TRACK 13 AUDIO
    TITLE "0:"
    INDEX 01 00:13:12
  TRACK 14 AUDIO
    TITLE "13:cjc020_2736"
    INDEX 01 00:13:69
  TRACK 15 AUDIO
    TITLE "0:"
    INDEX 01 00:14:72
  TRACK 16 AUDIO
    TITLE "14:cjc020_2737"
    INDEX 01 00:14:74
  TRACK 17 AUDIO
    TITLE "0:"
    INDEX 01 00:17:39
  TRACK 18 AUDIO
    TITLE "13:cjc020_2738"
    INDEX 01 00:18:19
  TRACK 19 AUDIO
    TITLE "0:"
    INDEX 01 00:19:15
  TRACK 20 AUDIO
    TITLE "14:cjc020_2739"
    INDEX 01 00:19:18
  TRACK 21 AUDIO
    TITLE "0:"
    INDEX 01 00:21:41
  TRACK 22 AUDIO
    TITLE "13:cjc020_2740"
    INDEX 01 00:22:25
  TRACK 23 AUDIO
    TITLE "0:"
    INDEX 01 00:23:38
  TRACK 24 AUDIO
    TITLE "14:cjc020_2741"
    INDEX 01 00:23:44
  TRACK 25 AUDIO
    TITLE "0:"
    INDEX 01 00:28:02
  TRACK 26 AUDIO
    TITLE "13:cjc020_2742"
    INDEX 01 00:28:59
  TRACK 27 AUDIO
    TITLE "0:"
    INDEX 01 00:30:03
  TRACK 28 AUDIO
    TITLE "14:cjc020_2743"
    INDEX 01 00:30:06
  TRACK 29 AUDIO
    TITLE "0:"
    INDEX 01 00:33:50
  TRACK 30 AUDIO
    TITLE "13:cjc020_2744"
    INDEX 01 00:34:30
  TRACK 31 AUDIO
    TITLE "0:"
    INDEX 01 00:35:47
  TRACK 32 AUDIO
    TITLE "14:cjc020_2745"
    INDEX 01 00:35:53
  TRACK 33 AUDIO
    TITLE "0:"
    INDEX 01 00:38:30
  TRACK 34 AUDIO
    TITLE "13:cjc020_2746"
    INDEX 01 00:39:07
  TRACK 35 AUDIO
    TITLE "0:"
    INDEX 01 00:40:30
  TRACK 36 AUDIO
    TITLE "14:cjc020_2747"
    INDEX 01 00:40:36
  TRACK 37 AUDIO
    TITLE "0:"
    INDEX 01 00:42:74
  TRACK 38 AUDIO
    TITLE "13:cjc020_2748"
    INDEX 01 00:43:52
  TRACK 39 AUDIO
    TITLE "0:"
    INDEX 01 00:44:69
  TRACK 40 AUDIO
    TITLE "14:cjc020_2749"
    INDEX 01 00:45:00
  TRACK 41 AUDIO
    TITLE "0:"
    INDEX 01 00:48:57
  TRACK 42 AUDIO
    TITLE "13:cjc020_2750"
    INDEX 01 00:49:37
  TRACK 43 AUDIO
    TITLE "0:"
    INDEX 01 00:50:48
  TRACK 44 AUDIO
    TITLE "14:cjc020_2751"
    INDEX 01 00:50:52
  TRACK 45 AUDIO
    TITLE "0:"
    INDEX 01 00:53:17
  TRACK 46 AUDIO
    TITLE "13:cjc020_2752"
    INDEX 01 00:53:72
  TRACK 47 AUDIO
    TITLE "0:"
    INDEX 01 00:55:06
  TRACK 48 AUDIO
    TITLE "14:cjc020_2753"
    INDEX 01 00:55:10
  TRACK 49 AUDIO
    TITLE "0:"
    INDEX 01 00:56:06
  TRACK 50 AUDIO
    TITLE "13:cjc020_2754"
    INDEX 01 00:56:63
  TRACK 51 AUDIO
    TITLE "0:"
    INDEX 01 00:57:70
  TRACK 52 AUDIO
    TITLE "14:cjc020_2755"
    INDEX 01 00:57:74
  TRACK 53 AUDIO
    TITLE "0:"
    INDEX 01 00:59:38
  TRACK 54 AUDIO
    TITLE "13:cjc020_2756"
    INDEX 01 01:00:17
  TRACK 55 AUDIO
    TITLE "0:"
    INDEX 01 01:01:34
  TRACK 56 AUDIO
    TITLE "14:cjc020_2757"
    INDEX 01 01:01:36
  TRACK 57 AUDIO
    TITLE "0:"
    INDEX 01 01:04:17
  TRACK 58 AUDIO
    TITLE "13:cjc020_2758"
    INDEX 01 01:04:72
  TRACK 59 AUDIO
    TITLE "0:"
    INDEX 01 01:06:02
  TRACK 60 AUDIO
    TITLE "14:cjc020_2759"
    INDEX 01 01:06:04
  TRACK 61 AUDIO
    TITLE "0:"
    INDEX 01 01:08:66
